# xmcd
#
# Track frame offsets:
#	150
#	18315
#	40205
#	56810
#	76647
#	99590
#	118065
#	138217
#	158884
#	177730
#	196852
#	215297
#	236087
#	256023
#	276271
#	294363
#	315323
#
# Disc length: 4494 seconds
#
# Revision: 0
# Processed by: cddbd v1.5.1PL0 Copyright (c) Steve Scherf et al.
# Submitted via: dBpowerAMP V4.0
#
DISCID=e7118c11
DTITLE=林志炫 - 时间的味道
DYEAR=2002
DGENRE=Blues
TTITLE0=时间的味道
TTITLE1=如果不是因为你
TTITLE2=心上
TTITLE3=许愿池
TTITLE4=光荣纪念日
TTITLE5=大人物
TTITLE6=晕眩
TTITLE7=往事借过
TTITLE8=预购自由
TTITLE9=对的爱
TTITLE10=只为你唱
TTITLE11=单身情歌
TTITLE12=你的样子
TTITLE13=蒙娜丽莎的眼泪
TTITLE14=野百合也有春天
TTITLE15=散了吧
TTITLE16=爱我
EXTD=
EXTT0=
EXTT1=
EXTT2=
EXTT3=
EXTT4=
EXTT5=
EXTT6=
EXTT7=
EXTT8=
EXTT9=
EXTT10=
EXTT11=
EXTT12=
EXTT13=
EXTT14=
EXTT15=
EXTT16=
PLAYORDER=
